<svg width="20" height="20" viewBox="0 0 20 20" fill="none" xmlns="http://www.w3.org/2000/svg">
<path d="M17.0638 0.00244141H3.26912C1.95488 0.00244141 0.886475 1.00988 0.886475 2.46724V16.7376C0.886475 18.195 1.95488 19.2024 3.26912 19.2024H17.0638C18.3781 19.2024 19.4465 18.195 19.4465 16.7376V2.46724C19.4465 1.00988 18.3781 0.00244141 17.0638 0.00244141ZM13.575 3.00519C13.575 2.52593 13.9532 2.14447 14.407 2.14447H16.506C16.9693 2.14447 17.338 2.53571 17.338 3.00519V5.07875C17.338 5.55802 16.9598 5.93948 16.506 5.93948H14.407C13.9437 5.93948 13.575 5.54824 13.575 5.07875V3.00519ZM10.1901 5.83189C12.2513 5.83189 13.9153 7.50443 13.9153 9.56821C13.9153 11.632 12.2418 13.3045 10.1901 13.3045C8.12894 13.3045 6.46487 11.632 6.46487 9.56821C6.46487 7.50443 8.12894 5.83189 10.1901 5.83189ZM17.3475 16.2388C17.3475 16.6594 17.0166 17.0017 16.61 17.0017H3.68513C3.27857 17.0017 2.94765 16.6594 2.94765 16.2388V8.12063H4.64953C4.49825 8.63902 4.41315 9.19653 4.41315 9.76383C4.41315 12.9622 6.99435 15.5444 10.1807 15.5444C13.367 15.5444 15.9482 12.9524 15.9482 9.76383C15.9482 9.19653 15.8631 8.63902 15.7118 8.12063H17.3475V16.2388V16.2388Z" fill="#13A6BA"/>
</svg>
