<svg width="18" height="21" viewBox="0 0 18 21" fill="none" xmlns="http://www.w3.org/2000/svg">
<path d="M16.7198 6.10845C16.3387 5.64527 15.8671 5.28105 15.3408 5.03261C15.3618 4.85998 15.3745 4.68523 15.3745 4.51049C15.3745 2.22197 13.5133 0.36084 11.2269 0.36084C8.9405 0.36084 7.07727 2.22197 7.07727 4.51049C7.07727 5.13367 7.21833 5.75054 7.48571 6.30846C6.64567 7.55482 6.56988 9.1991 7.33623 10.5234L5.04981 12.8077L1.05596 16.8036C0.655947 17.2036 0.655947 17.8563 1.05596 18.2563C1.45598 18.6563 2.10864 18.6563 2.50866 18.2563L3.15079 17.6142L3.59081 18.0542C3.99082 18.4542 4.64348 18.4542 5.0435 18.0542C5.44352 17.6542 5.44352 17.0015 5.0435 16.6015L4.60348 16.1615L4.95928 15.8057L5.3993 16.2457C5.78248 16.6436 6.47093 16.6436 6.852 16.2457C7.24991 15.8625 7.24991 15.1741 6.852 14.793L6.41198 14.353L8.79102 11.974C9.78685 12.5508 10.9932 12.6666 12.088 12.2855C12.1575 12.315 12.227 12.3424 12.2964 12.3698V16.8499V18.4079V19.4522C12.2964 19.528 12.3259 19.6016 12.3764 19.6585L13.427 20.787C13.5365 20.9091 13.7449 20.9133 13.8586 20.7954L14.9976 19.6669C15.0544 19.6101 15.086 19.5343 15.086 19.4522V18.4563C15.086 18.3637 15.0439 18.2753 14.9702 18.2184L14.307 17.7047L14.9702 17.191C15.1239 17.0773 15.1239 16.8289 14.9702 16.7152L14.307 16.2015L14.9702 15.6878C15.1239 15.5741 15.1239 15.3257 14.9702 15.212L14.307 14.6983L14.9702 14.1846C15.0439 14.1277 15.086 14.0393 15.086 13.9467V12.3382C16.6103 11.7466 17.6188 10.2855 17.6188 8.63276C17.6188 8.15485 17.5345 7.68536 17.3682 7.24113C17.3009 7.06007 17.2082 6.84953 17.0756 6.62426C16.9598 6.41794 16.8356 6.2474 16.7198 6.10845ZM12.9386 7.59062C12.9386 7.18849 13.2649 6.86006 13.6691 6.86006C13.7344 6.86006 13.7975 6.87059 13.8586 6.88532C13.5975 7.17376 13.2902 7.42008 12.9407 7.61377C12.9407 7.60746 12.9386 7.59904 12.9386 7.59062ZM13.6691 8.32117C13.4944 8.32117 13.3323 8.25801 13.2081 8.15485C13.6354 7.92326 14.0102 7.6222 14.326 7.2706C14.3744 7.36745 14.4018 7.47482 14.4018 7.59062C14.3976 7.99484 14.0712 8.32117 13.6691 8.32117ZM11.2269 0.96297C13.1828 0.96297 14.7744 2.55462 14.7744 4.51049C14.7744 4.61154 14.7702 4.7126 14.7618 4.81366C14.4039 4.71049 14.0312 4.65576 13.6481 4.65576C13.1912 4.65576 12.7512 4.73365 12.3428 4.87682C10.8585 4.24521 9.11735 4.57575 7.97204 5.72317C7.95309 5.74212 7.93625 5.76107 7.9173 5.78001C7.76361 5.37789 7.68361 4.94629 7.68361 4.51049C7.6794 2.55462 9.27104 0.96297 11.2269 0.96297ZM8.91313 11.3424C8.79313 11.2623 8.63523 11.2792 8.53417 11.3802L5.77406 14.1404C5.65616 14.2583 5.65616 14.4477 5.77406 14.5656L6.42671 15.2183C6.59093 15.3762 6.59093 15.6604 6.42671 15.8204C6.26881 15.9847 5.98459 15.9847 5.82458 15.8204L5.17193 15.1678C5.05403 15.0499 4.86454 15.0499 4.74664 15.1678L3.96556 15.9489C3.84976 16.0604 3.84976 16.2626 3.96556 16.3741L4.61822 17.0268C4.78454 17.1931 4.78454 17.4626 4.61822 17.6289C4.45189 17.7953 4.18241 17.7953 4.01609 17.6289L3.36343 16.9763C3.24553 16.8584 3.05605 16.8584 2.93815 16.9763L2.08337 17.831C1.91705 17.9974 1.64757 17.9974 1.48124 17.831C1.31492 17.6647 1.31492 17.3952 1.48124 17.2289L4.99929 13.7109L7.93204 10.7781C8.0331 10.6771 8.04994 10.5171 7.96994 10.3992C7.08358 9.06857 7.26254 7.28113 8.39522 6.14845C9.22894 5.31473 10.4353 4.9884 11.5575 5.25157C11.1595 5.4979 10.8101 5.81159 10.5216 6.17792C9.98686 6.23687 9.4879 6.47478 9.10472 6.85795C8.18047 7.7822 8.18047 9.28542 9.10472 10.2097C9.45 10.5549 9.8816 10.7802 10.3595 10.8644C10.3974 10.9192 10.4353 10.9739 10.4774 11.0287C10.7195 11.3487 11.0101 11.6287 11.3322 11.8603C10.4964 11.9971 9.62895 11.8182 8.91313 11.3424ZM9.94897 10.0939C9.79528 10.0118 9.65632 9.90861 9.53 9.78229C9.06472 9.317 8.91313 8.65171 9.07735 8.058C9.27104 8.1759 9.47105 8.27486 9.68159 8.35907C9.67527 8.44749 9.67317 8.53802 9.67317 8.62855C9.67106 9.13805 9.7658 9.63281 9.94897 10.0939ZM9.77001 7.74431C9.62053 7.67693 9.47526 7.59904 9.33631 7.51061C9.39315 7.43061 9.45631 7.35271 9.53 7.28113C9.68369 7.12744 9.86475 7.00322 10.0606 6.9169C9.93423 7.17797 9.83738 7.45587 9.77001 7.74431Z" fill="#13A6BA"/>
</svg>
