<svg width="19" height="20" viewBox="0 0 19 20" fill="none" xmlns="http://www.w3.org/2000/svg">
<path d="M18.9412 19.0345L18.9505 12.0567C18.9505 8.64024 18.2415 6.01514 14.3791 6.01514C12.5226 6.01514 11.2818 7.06711 10.7686 8.07082H10.7127V6.32397H7.05554V19.0248H10.8619V12.742C10.8619 11.082 11.1698 9.47989 13.1476 9.47989C15.0975 9.47989 15.1348 11.3715 15.1348 12.8481V19.0345H18.9412Z" fill="#13A6BA"/>
<path d="M4.67657 6.32373H0.86084V19.0246H4.67657V6.32373Z" fill="#13A6BA"/>
<path d="M2.76404 0.00244141C1.54189 0.00244141 0.552979 1.02546 0.552979 2.28976C0.552979 3.55405 1.54189 4.59637 2.76404 4.59637C3.9862 4.59637 4.97511 3.55405 4.97511 2.28976C4.97511 1.02546 3.9862 0.00244141 2.76404 0.00244141Z" fill="#13A6BA"/>
</svg>
