<svg width="20" height="20" viewBox="0 0 20 20" fill="none" xmlns="http://www.w3.org/2000/svg">
<path d="M19.2907 6.28565L18.1822 5.22211V2.82485C18.1822 1.28099 16.9278 0.0266113 15.3839 0.0266113C13.9773 0.0266113 12.813 1.07086 12.6179 2.42387H9.38863C8.96835 2.42387 8.55666 2.59541 8.25861 2.89132L1.06254 10.0874C0.766632 10.3854 0.595093 10.7971 0.595093 11.2196C0.595093 11.642 0.766632 12.0515 1.06254 12.3496L5.8592 17.1462C6.15725 17.4443 6.56895 17.6137 6.98922 17.6137C7.40949 17.6137 7.82119 17.4421 8.11924 17.1462L9.38648 15.879V17.6158C9.38648 18.0361 9.56445 18.4499 9.87537 18.7501C10.1799 19.046 10.6044 19.2154 11.0418 19.2154H18.1243C18.5595 19.2154 18.9841 19.046 19.2907 18.7501C19.6016 18.4499 19.7796 18.0361 19.7796 17.6158V7.4221C19.7818 7.00183 19.6038 6.58799 19.2907 6.28565ZM15.3839 0.826413C16.4861 0.826413 17.3824 1.72271 17.3824 2.82485V4.45661L15.7506 2.89132C15.3925 2.54181 14.8886 2.38313 14.3954 2.44746C14.3268 2.43459 14.2582 2.42816 14.1853 2.42816H13.4262C13.6128 1.51471 14.419 0.826413 15.3839 0.826413ZM12.9867 3.99775C13.6621 3.99775 14.211 4.54667 14.211 5.22211C14.211 5.89754 13.6621 6.44647 12.9867 6.44647C12.3112 6.44647 11.7623 5.89754 11.7623 5.22211C11.7623 4.54882 12.3112 3.99775 12.9867 3.99775ZM18.982 17.6137C18.982 17.8174 18.8919 18.0232 18.7354 18.1733C18.5788 18.3256 18.3558 18.4113 18.1264 18.4113H11.044C10.8145 18.4113 10.5915 18.3234 10.435 18.1733C10.2785 18.0232 10.1884 17.8174 10.1884 17.6137V15.0792L15.3153 9.9523C15.6134 9.65425 15.7828 9.24256 15.7828 8.82229V4.02991L18.7354 6.86031C18.8919 7.0104 18.982 7.21625 18.982 7.41995V17.6137Z" fill="#13A6BA"/>
</svg>
