<svg width="23" height="19" viewBox="0 0 23 19" fill="none" xmlns="http://www.w3.org/2000/svg">
<path d="M20.2618 4.64374L20.273 5.24711C20.273 11.4432 15.7242 18.6024 7.40891 18.6024C4.86067 18.6024 2.48008 17.825 0.479492 16.479C0.825963 16.5255 1.18361 16.5487 1.55243 16.5487C3.67596 16.5487 5.62067 15.7945 7.16302 14.5297C5.18479 14.4949 3.51949 13.1373 2.93831 11.2692C3.21772 11.3272 3.49714 11.3504 3.78773 11.3504C4.20126 11.3504 4.60361 11.2924 4.97243 11.188C2.90478 10.7586 1.35126 8.86732 1.35126 6.59308V6.54667C1.95479 6.89477 2.64772 7.10363 3.39655 7.12683C2.18949 6.2914 1.39596 4.84099 1.39596 3.22814C1.39596 2.3695 1.61949 1.55728 2.01067 0.861081C4.22361 3.70388 7.56538 5.5604 11.3207 5.75765C11.2424 5.42116 11.2089 5.06146 11.2089 4.69015C11.2089 2.10263 13.2207 0.00244141 15.7242 0.00244141C17.0207 0.00244141 18.2054 0.571 19.0324 1.47605C20.0495 1.26719 21.0218 0.884288 21.9048 0.350539C21.5695 1.44124 20.8542 2.3695 19.9154 2.94967C20.8318 2.83363 21.7036 2.57836 22.5195 2.20706C21.9048 3.14692 21.1336 3.98235 20.2618 4.64374Z" fill="#13A6BA"/>
</svg>
